<svg width="33" height="33" viewBox="0 0 33 33" fill="none" xmlns="http://www.w3.org/2000/svg">
<g clip-path="url(#clip0_4_155)">
<path d="M4.38001 6.028C4.58001 5.78 4.78801 5.54 4.99601 5.3C5.00401 5.292 5.02801 5.284 5.03601 5.276C5.05201 5.252 5.08401 5.236 5.10801 5.212L5.12401 5.188C5.26801 5.052 5.42801 4.908 5.60401 4.772C6.24401 4.292 6.90001 3.924 7.59601 3.676C9.83601 2.892 12.324 3.372 14.276 5.22C17.004 7.772 16.756 11.892 14.58 14.628C11.828 18.708 7.10801 24.396 13.644 29.492C14.82 30.412 15.692 31.164 19.396 32.236C16.972 32.684 14.724 32.54 12.228 31.908C10.46 30.908 7.67601 28.772 6.73201 25.884C5.30001 21.508 9.25201 14.956 11.156 12.436C13.772 8.948 9.54001 5.172 6.41201 9.388C4.79601 11.588 1.94001 17.804 2.93201 22.42C3.50801 25.036 4.28401 26.94 7.34801 29.564C6.78001 29.228 6.22801 28.852 5.69201 28.42C-1.41999 21.788 -0.595989 11.532 4.38001 6.028Z" fill="url(#paint0_linear_4_155)"/>
<path d="M28.62 26.972C28.42 27.22 28.212 27.46 28.004 27.7C27.996 27.708 27.972 27.716 27.964 27.724C27.948 27.748 27.916 27.764 27.892 27.788L27.876 27.812C27.732 27.948 27.572 28.092 27.396 28.22C26.756 28.7 26.1 29.068 25.404 29.316C23.164 30.1 20.676 29.62 18.724 27.772C15.996 25.22 16.244 21.1 18.42 18.364C21.172 14.284 25.892 8.59599 19.356 3.49999C18.18 2.57999 17.308 1.82799 13.604 0.755994C16.028 0.307994 18.276 0.451994 20.772 1.08399C22.54 2.08399 25.324 4.21999 26.268 7.10799C27.7 11.484 23.748 18.036 21.844 20.556C19.228 24.044 23.46 27.82 26.588 23.604C28.22 21.404 31.076 15.188 30.084 10.572C29.508 7.95599 28.732 6.05199 25.668 3.42799C26.236 3.76399 26.788 4.13999 27.324 4.57199C34.42 11.212 33.596 21.468 28.62 26.972Z" fill="url(#paint1_linear_4_155)"/>
</g>
<defs>
<linearGradient id="paint0_linear_4_155" x1="0.500011" y1="17.9109" x2="32.5" y2="17.9109" gradientUnits="userSpaceOnUse">
<stop stop-color="#0082FA"/>
<stop offset="1" stop-color="#00F2FE"/>
</linearGradient>
<linearGradient id="paint1_linear_4_155" x1="0.500006" y1="15.089" x2="32.5" y2="15.089" gradientUnits="userSpaceOnUse">
<stop stop-color="#0082FA"/>
<stop offset="1" stop-color="#00F2FE"/>
</linearGradient>
<clipPath id="clip0_4_155">
<rect width="32" height="32" fill="white" transform="translate(0.5 0.5)"/>
</clipPath>
</defs>
</svg>
