<svg width="140" height="28" viewBox="0 0 140 28" fill="none" xmlns="http://www.w3.org/2000/svg"><g clip-path="url(#clip0_1871_6616)"><mask id="mask0_1871_6616" style="mask-type:luminance;" maskUnits="userSpaceOnUse" x="0" y="-1" width="29" height="29"><path d="M28.0136 -0.0136719H0.0227051V27.9863H28.0136V-0.0136719Z" fill="white"></path></mask><g mask="url(#mask0_1871_6616)"><path d="M16.9572 0.322266L16.8732 0.490265C19.7843 1.75027 21.4358 4.35426 21.4358 7.21026C21.4358 10.2903 19.4204 13.0903 15.5017 15.4703L14.8579 15.8623C11.9188 17.6543 10.4353 19.6703 10.4353 22.1063C10.4353 25.2423 12.8985 27.5382 16.2854 27.5382C21.7157 27.5382 28.0136 21.7423 28.0136 14.0143C28.0136 12.7543 27.8457 11.5223 27.5378 10.3463L27.3418 10.4023C27.4258 11.0463 27.4538 11.5223 27.4538 11.9703C27.4538 16.5343 24.8786 20.4543 20.568 23.0583L20.1482 23.3103C19.2245 23.8423 18.4407 24.1503 17.657 24.1503C16.6213 24.1503 15.8376 23.4783 15.8376 22.4983C15.8376 21.6583 16.3974 20.8183 18.2168 19.7543L18.7486 19.4463C22.7793 17.0943 25.0186 13.7903 25.0186 10.1223C25.0186 5.47427 21.5477 1.63827 16.9572 0.322266ZM11.0791 27.6782L11.1631 27.5102C8.25204 26.2503 6.60057 23.6463 6.60057 20.7903C6.60057 17.7103 8.61592 14.9103 12.5346 12.5303L13.1784 12.1383C16.1175 10.3463 17.601 8.33027 17.601 5.89427C17.601 2.75827 15.1378 0.462265 11.7509 0.462265C6.32066 0.462265 0.0227051 6.25827 0.0227051 13.9863C0.0227051 15.2463 0.190651 16.4783 0.498551 17.6543L0.694488 17.5983C0.610515 16.9543 0.582523 16.4783 0.582523 16.0303C0.582523 11.4663 3.15769 7.54627 7.46829 4.94227L7.88816 4.69026C8.81186 4.15826 9.5956 3.85027 10.3793 3.85027C11.415 3.85027 12.1988 4.52226 12.1988 5.50226C12.1988 6.34227 11.6389 7.18227 9.81953 8.24627L9.2877 8.55427C5.25701 10.9063 3.01773 14.2103 3.01773 17.8783C3.01773 22.5263 6.48861 26.3623 11.0791 27.6782Z" fill="#EEEFFF"></path></g><mask id="mask1_1871_6616" style="mask-type:luminance;" maskUnits="userSpaceOnUse" x="42" y="-1" width="98" height="29"><path d="M139.977 -0.0136719H42.009V27.9863H139.977V-0.0136719Z" fill="white"></path></mask><g mask="url(#mask1_1871_6616)"><mask id="mask2_1871_6616" style="mask-type:luminance;" maskUnits="userSpaceOnUse" x="42" y="3" width="98" height="24"><path d="M139.977 3.85034H42.009V26.3579H139.977V3.85034Z" fill="white"></path></mask><g mask="url(#mask2_1871_6616)"><path d="M42.009 20.3146H42.4132C43.8641 20.3146 44.2923 19.8863 44.2923 18.1971V8.585C44.2923 6.89575 43.8641 6.46749 42.4132 6.46749H42.009V5.06372H49.5013V6.46749H49.1206C47.6698 6.46749 47.2416 6.89575 47.2416 8.585V18.1971C47.2416 19.8863 47.6698 20.3146 49.1206 20.3146H49.5013V21.7184H42.009V20.3146Z" fill="#EEEFFF"></path><path d="M54.805 9.56059H55.471V11.6781H55.495C56.3511 10.2743 57.8019 9.39404 59.705 9.39404C61.893 9.39404 63.4867 10.6074 63.4867 13.9622V18.5065C63.4867 20.053 63.8433 20.4337 65.0564 20.4337H65.3894V21.7185H59.1103V20.4337H59.4192C60.5134 20.4337 60.8228 20.053 60.8228 18.5065V13.9622C60.8228 12.1064 59.681 11.464 58.4202 11.464C57.0171 11.464 55.4474 12.4632 55.4474 15.1994V18.5065C55.4474 20.053 55.7804 20.4337 56.8506 20.4337H57.16V21.7185H50.9044V20.4337H51.2138C52.4269 20.4337 52.7835 20.053 52.7835 18.5065V12.2729L51.0709 11.7495V10.9405L54.805 9.56059Z" fill="#EEEFFF"></path><path d="M67.8151 21.2426V12.2728L66.1026 11.7494V10.9405L69.8607 9.56048H70.479V20.0767C70.479 23.4076 68.624 25.6203 64.8895 26.3579L64.8182 26.0724C66.2931 25.2159 67.8151 23.717 67.8151 21.2426ZM67.3397 5.80131C67.3397 4.70686 68.1717 3.85034 69.2423 3.85034C70.3125 3.85034 71.145 4.70686 71.1686 5.80131C71.1686 6.87194 70.3361 7.70467 69.2659 7.70467C68.1957 7.70467 67.3397 6.87194 67.3397 5.80131Z" fill="#EEEFFF"></path><path d="M79.1367 9.34619C82.2048 9.34619 84.1074 11.3685 84.1074 14.4853V14.6519H75.6639C75.6875 17.7687 77.2576 19.5769 80.088 19.5769C82.276 19.5769 83.299 18.4825 83.8933 17.4118L84.2975 17.5308C83.7744 19.8386 82.0619 22.0513 78.8037 22.0513C75.1884 22.0513 73.0476 19.3152 73.0476 15.8653C73.0476 12.1537 75.4974 9.34619 79.1367 9.34619ZM81.2534 13.4385C81.1346 11.6303 80.2781 10.6548 78.732 10.6548C77.4953 10.6548 76.1157 11.2496 75.7591 13.4385H81.2534Z" fill="#EEEFFF"></path><path d="M86.0813 16.127C86.0813 12.1775 89.3159 9.34619 93.3118 9.34619C94.7149 9.34619 95.8804 9.70307 96.7129 10.06L96.7365 13.7716L96.0469 13.8668L94.073 10.6786C93.716 10.5834 93.3594 10.5358 93.0264 10.5358C91.0997 10.5358 88.6976 11.9871 88.6976 15.1039C88.6976 17.6497 90.196 19.6007 92.9788 19.6007C95.1192 19.6007 96.1657 18.4825 96.7841 17.4118L97.1888 17.5545C96.6652 19.8386 94.9527 22.0513 91.7421 22.0513C88.1981 22.0513 86.0813 19.3152 86.0813 16.127Z" fill="#EEEFFF"></path><path d="M99.282 18.1495V10.0125L101.232 6.80054H101.969V9.82218H105.728V11.4163H101.969V17.5547C101.969 19.1726 102.635 20.0053 103.944 20.0053C104.491 20.0053 105.276 19.8626 106.061 18.9823L106.37 19.1726C105.585 20.9332 104.324 21.9563 102.541 21.9563C100.638 21.9563 99.282 20.6953 99.282 18.1495Z" fill="#EEEFFF"></path><path d="M107.417 20.4336H107.75C108.962 20.4336 109.319 20.0529 109.319 18.5064V12.2966L107.607 11.7494V10.9405L111.46 9.5367H111.983V18.5064C111.983 20.0529 112.34 20.4336 113.553 20.4336H113.862V21.7184H107.417V20.4336ZM108.701 5.80131C108.701 4.70686 109.533 3.85034 110.604 3.85034C111.674 3.85034 112.506 4.70686 112.53 5.80131C112.554 6.87194 111.698 7.70467 110.604 7.70467C109.509 7.70467 108.701 6.87194 108.701 5.80131Z" fill="#EEEFFF"></path><path d="M114.647 11.1071H114.361V9.82227H120.783V11.1071H120.45C119.237 11.1071 118.904 11.4877 119.523 12.8915L121.948 18.3638L124.303 12.8915C124.898 11.4877 124.565 11.1071 123.352 11.1071H123.043V9.82227H128.299V11.1071H128.014C126.872 11.1071 126.515 11.4877 125.897 12.8915L122.044 21.7898H120.616L116.621 12.8915C115.979 11.4877 115.669 11.1071 114.647 11.1071Z" fill="#EEEFFF"></path><path d="M134.816 9.34619C137.884 9.34619 139.787 11.3685 139.787 14.4853V14.6519H131.344C131.367 17.7687 132.937 19.5769 135.767 19.5769C137.956 19.5769 138.978 18.4825 139.573 17.4118L139.977 17.5308C139.454 19.8386 137.742 22.0513 134.483 22.0513C130.868 22.0513 128.727 19.3152 128.727 15.8653C128.727 12.1537 131.177 9.34619 134.816 9.34619ZM136.933 13.4385C136.814 11.6303 135.958 10.6548 134.412 10.6548C133.175 10.6548 131.796 11.2496 131.438 13.4385H136.933Z" fill="#EEEFFF"></path></g></g></g><defs><clipPath id="clip0_1871_6616"><rect width="140" height="28" fill="white"></rect></clipPath></defs></svg>