<svg width="111" height="50" viewBox="0 0 111 50" fill="none" xmlns="http://www.w3.org/2000/svg"><path fill-rule="evenodd" clip-rule="evenodd" d="M19.3406 12.6441C19.4575 12.7389 19.3891 12.9238 19.2388 12.9238H4.50814C4.35779 12.9238 4.28943 12.7389 4.40629 12.6441C6.44594 10.9906 9.04408 10 11.8734 10C14.7027 10 17.301 10.9906 19.3406 12.6441Z" fill="white"></path><path fill-rule="evenodd" clip-rule="evenodd" d="M7.25429 25.1147C7.16933 24.9934 7.03263 24.9172 6.8847 24.9172H0.673582C0.531312 24.9172 0.427573 25.0524 0.467093 25.1893C1.89913 30.1413 6.46337 33.762 11.8724 33.762C17.2816 33.762 21.8457 30.1413 23.2777 25.1893C23.3173 25.0524 23.2136 24.9172 23.0713 24.9172H16.8603C16.7124 24.9172 16.5756 24.9934 16.4907 25.1147C15.4712 26.5696 13.7828 27.5208 11.8725 27.5208C9.96219 27.5208 8.27381 26.5696 7.25429 25.1147Z" fill="white"></path><path fill-rule="evenodd" clip-rule="evenodd" d="M16.049 18.0857C16.1349 18.1804 16.2554 18.2375 16.3833 18.2375H22.8806C23.0277 18.2375 23.1322 18.094 23.0836 17.955C22.6251 16.6413 21.9426 15.4326 21.0818 14.3752C21.001 14.2759 20.8792 14.2197 20.7513 14.2197H2.99432C2.86642 14.2197 2.74472 14.2759 2.66388 14.3752C1.80317 15.4326 1.12056 16.6413 0.662041 17.955C0.61354 18.094 0.717997 18.2375 0.865028 18.2375H7.36239C7.4902 18.2375 7.61082 18.1804 7.69669 18.0857C8.72797 16.9477 10.217 16.2332 11.8728 16.2332C13.5287 16.2332 15.0178 16.9477 16.049 18.0857Z" fill="white"></path><path fill-rule="evenodd" clip-rule="evenodd" d="M17.46 23.6233C17.3495 23.6233 17.2711 23.5155 17.3008 23.4089C17.4363 22.9244 17.5087 22.4134 17.5087 21.8855C17.5087 21.1427 17.3653 20.4334 17.1047 19.7838C17.0605 19.6739 17.1396 19.5513 17.258 19.5513H23.3815C23.4591 19.5513 23.526 19.6061 23.5403 19.6824C23.6741 20.3964 23.744 21.1329 23.744 21.8857C23.744 22.4277 23.7078 22.9612 23.6376 23.4839C23.6268 23.564 23.5582 23.6233 23.4774 23.6233H17.46ZM6.4432 23.4089C6.47302 23.5155 6.39461 23.6233 6.28414 23.6233H0.266667C0.185921 23.6233 0.11721 23.564 0.106522 23.4839C0.0362851 22.9612 0 22.4277 0 21.8857C0 21.1329 0.0699666 20.3964 0.203704 19.6824C0.218075 19.6061 0.284989 19.5513 0.362591 19.5513H6.48614C6.60451 19.5513 6.68355 19.6739 6.63945 19.7838C6.3788 20.4334 6.23536 21.1427 6.23536 21.8855C6.23536 22.4134 6.30776 22.9244 6.4432 23.4089Z" fill="white"></path><path d="M26.6387 17.3435H30.8517V21.3692L30.1651 20.589C30.5604 19.736 31.1118 19.0079 31.8191 18.4045C32.5265 17.8012 33.3171 17.3955 34.1909 17.1874C35.0647 16.9794 35.9593 17.0106 36.8748 17.2811V21.2444C35.7721 20.8699 34.7526 20.7659 33.8164 20.9323C32.901 21.0988 32.1728 21.4941 31.6319 22.1182C31.1118 22.7424 30.8517 23.5121 30.8517 24.4276V33.4465H26.6387V17.3435Z" fill="white"></path><path d="M37.0091 25.395C37.0091 23.8554 37.342 22.4407 38.0077 21.1508C38.6943 19.8609 39.6305 18.8518 40.8164 18.1237C42.0023 17.3955 43.313 17.0314 44.7486 17.0314C46.1841 17.0314 47.4532 17.3955 48.5559 18.1237C49.6586 18.8518 50.5012 19.8505 51.0837 21.1196C51.6871 22.3887 51.9888 23.8138 51.9888 25.395C51.9888 26.9762 51.6871 28.4013 51.0837 29.6704C50.5012 30.9395 49.6586 31.9381 48.5559 32.6663C47.4532 33.3945 46.1841 33.7586 44.7486 33.7586C43.313 33.7586 42.0023 33.3945 40.8164 32.6663C39.6305 31.9381 38.6943 30.9395 38.0077 29.6704C37.342 28.3805 37.0091 26.9554 37.0091 25.395ZM41.3782 25.395C41.3782 26.2272 41.5654 26.997 41.9399 27.7043C42.3144 28.3909 42.8241 28.9318 43.4691 29.3271C44.114 29.7224 44.8318 29.9201 45.6224 29.9201C46.413 29.9201 47.1308 29.7224 47.7757 29.3271C48.4207 28.9318 48.9304 28.3909 49.3049 27.7043C49.6794 26.997 49.8666 26.2272 49.8666 25.395C49.8666 24.5628 49.6794 23.8034 49.3049 23.1168C48.9304 22.4095 48.4207 21.8686 47.7757 21.4941C47.1308 21.0988 46.413 20.9011 45.6224 20.9011C44.8318 20.9011 44.114 21.0988 43.4691 21.4941C42.8241 21.8686 42.3144 22.4095 41.9399 23.1168C41.5654 23.8034 41.3782 24.5628 41.3782 25.395ZM49.8666 10.353H54.0797V33.4465H49.8666V10.353Z" fill="white"></path><path d="M60.3443 23.6786H70.2684L69.3009 25.0205C69.2593 24.1883 69.0513 23.4393 68.6768 22.7736C68.3023 22.1078 67.7926 21.5877 67.1476 21.2132C66.5235 20.8387 65.8057 20.6515 64.9943 20.6515C64.1829 20.6515 63.4443 20.8595 62.7785 21.2756C62.1128 21.6709 61.5927 22.243 61.2182 22.992C60.8437 23.7202 60.6564 24.5212 60.6564 25.395C60.6564 26.2896 60.8437 27.101 61.2182 27.8292C61.6135 28.5573 62.1648 29.1295 62.8722 29.5456C63.5795 29.9617 64.3805 30.1697 65.2751 30.1697C66.149 30.1697 66.9292 29.9721 67.6157 29.5768C68.3231 29.1607 68.8744 28.5989 69.2697 27.8916L72.7338 29.4519C71.9848 30.7627 70.9549 31.8133 69.6442 32.6039C68.3335 33.3737 66.8355 33.7586 65.1503 33.7586C63.5483 33.7586 62.092 33.3945 60.7812 32.6663C59.4705 31.9381 58.4303 30.9395 57.6605 29.6704C56.9115 28.3805 56.537 26.9554 56.537 25.395C56.537 23.8554 56.9011 22.4511 57.6293 21.182C58.3783 19.8921 59.3977 18.883 60.6876 18.1549C61.9775 17.4059 63.4131 17.0314 64.9943 17.0314C66.7627 17.0314 68.3335 17.4787 69.7066 18.3733C71.0798 19.2679 72.0888 20.4746 72.7338 21.9934C73.3995 23.4913 73.5868 25.1245 73.2955 26.8929H60.3443V23.6786Z" fill="white"></path><path d="M75.8967 17.3435H80.1097V21.3692L79.4232 20.589C79.8185 19.736 80.3698 19.0079 81.0772 18.4045C81.7845 17.8012 82.5751 17.3955 83.4489 17.1874C84.3228 16.9794 85.2174 17.0106 86.1328 17.2811V21.2444C85.0301 20.8699 84.0107 20.7659 83.0745 20.9323C82.159 21.0988 81.4308 21.4941 80.8899 22.1182C80.3698 22.7424 80.1097 23.5121 80.1097 24.4276V33.4465H75.8967V17.3435Z" fill="white"></path><path d="M88.1103 10.353H92.3234V33.4465H88.1103V10.353Z" fill="white"></path><path d="M99.0069 33.6649C99.3814 34.4763 99.8703 35.0901 100.474 35.5062C101.077 35.9431 101.774 36.1615 102.565 36.1615C103.75 36.1615 104.739 35.7454 105.529 34.9132C106.341 34.1018 106.746 33.0512 106.746 31.7613V28.9526L107.402 29.8264C106.882 30.8875 106.122 31.7301 105.124 32.3542C104.125 32.9576 102.981 33.2592 101.691 33.2592C100.359 33.2592 99.2046 32.9784 98.2267 32.4166C97.2697 31.8549 96.5311 31.0747 96.011 30.0761C95.4908 29.0775 95.2308 27.9228 95.2308 26.6121V17.3435H99.4438V25.8631C99.4438 26.5913 99.579 27.2258 99.8495 27.7667C100.12 28.2869 100.505 28.703 101.004 29.015C101.524 29.3063 102.159 29.4519 102.908 29.4519C103.657 29.4519 104.323 29.3063 104.905 29.015C105.508 28.703 105.966 28.2765 106.278 27.7355C106.59 27.1738 106.746 26.5497 106.746 25.8631V17.3435H110.959V31.7613C110.959 33.3217 110.585 34.726 109.836 35.9743C109.108 37.2434 108.099 38.2316 106.809 38.939C105.54 39.6464 104.125 40 102.565 40C100.942 40 99.4958 39.6047 98.2267 38.8142C96.9576 38.0236 95.9694 36.9729 95.262 35.6622L99.0069 33.6649Z" fill="white"></path></svg>